<svg xmlns="http://www.w3.org/2000/svg" width="24" height="24" viewBox="0 0 24 24" fill="none">
  <path d="M12.1768 10.3232C12.2744 10.4209 12.2744 10.5791 12.1768 10.6768C12.0791 10.7744 11.9209 10.7744 11.8232 10.6768C11.7256 10.5791 11.7256 10.4209 11.8232 10.3232C11.9209 10.2256 12.0791 10.2256 12.1768 10.3232" stroke="black" stroke-opacity="0.87" stroke-width="1.5" stroke-linecap="round" stroke-linejoin="round"/>
  <path d="M16.1768 10.3232C16.2744 10.4209 16.2744 10.5791 16.1768 10.6768C16.0791 10.7744 15.9209 10.7744 15.8232 10.6768C15.7256 10.5791 15.7256 10.4209 15.8232 10.3232C15.9209 10.2256 16.0791 10.2256 16.1768 10.3232" stroke="black" stroke-opacity="0.87" stroke-width="1.5" stroke-linecap="round" stroke-linejoin="round"/>
  <path d="M8.17678 10.3232C8.27441 10.4209 8.27441 10.5791 8.17678 10.6768C8.07915 10.7744 7.92085 10.7744 7.82322 10.6768C7.72559 10.5791 7.72559 10.4209 7.82322 10.3232C7.92085 10.2256 8.07915 10.2256 8.17678 10.3232" stroke="black" stroke-opacity="0.87" stroke-width="1.5" stroke-linecap="round" stroke-linejoin="round"/>
  <path d="M12 21L8 17.001V17H5C3.895 17 3 16.105 3 15V5C3 3.895 3.895 3 5 3H19C20.105 3 21 3.895 21 5V15C21 16.105 20.105 17 19 17H16L12 20.999" stroke="black" stroke-opacity="0.87" stroke-width="1.5" stroke-linecap="round" stroke-linejoin="round"/>
</svg>