<svg xmlns="http://www.w3.org/2000/svg" width="20" height="20" viewBox="0 0 20 20" fill="none">
  <path d="M5.74796 7.49897C5.74796 7.08476 5.41217 6.74897 4.99796 6.74897C4.58374 6.74897 4.24796 7.08476 4.24796 7.49897H5.74796ZM15.7521 7.49897C15.7521 7.08476 15.4163 6.74897 15.0021 6.74897C14.5879 6.74897 14.2521 7.08476 14.2521 7.49897H15.7521ZM12.4174 8.33265C12.4174 7.91844 12.0816 7.58265 11.6674 7.58265C11.2532 7.58265 10.9174 7.91844 10.9174 8.33265H12.4174ZM10.9174 14.1684C10.9174 14.5826 11.2532 14.9184 11.6674 14.9184C12.0816 14.9184 12.4174 14.5826 12.4174 14.1684H10.9174ZM9.08268 8.33265C9.08268 7.91844 8.74689 7.58265 8.33268 7.58265C7.91847 7.58265 7.58268 7.91844 7.58268 8.33265H9.08268ZM7.58268 14.1684C7.58268 14.5826 7.91847 14.9184 8.33268 14.9184C8.74689 14.9184 9.08268 14.5826 9.08268 14.1684H7.58268ZM3.74744 4.24793C3.33322 4.24793 2.99744 4.58372 2.99744 4.99793C2.99744 5.41215 3.33322 5.74793 3.74744 5.74793V4.24793ZM16.2526 5.74793C16.6669 5.74793 17.0026 5.41215 17.0026 4.99793C17.0026 4.58372 16.6669 4.24793 16.2526 4.24793V5.74793ZM5.95381 4.76076C5.82282 5.15372 6.03519 5.57846 6.42815 5.70944C6.82111 5.84043 7.24585 5.62806 7.37683 5.2351L5.95381 4.76076ZM7.11884 3.63736L7.83035 3.87454L7.83041 3.87436L7.11884 3.63736ZM8.70117 2.49689L8.70099 3.24689H8.70117V2.49689ZM11.2989 2.49689V3.24689L11.2998 3.24689L11.2989 2.49689ZM12.8829 3.63736L13.5947 3.40098L13.5945 3.40037L12.8829 3.63736ZM12.623 5.23432C12.7535 5.62742 13.178 5.84026 13.5711 5.7097C13.9642 5.57915 14.1771 5.15465 14.0465 4.76154L12.623 5.23432ZM4.24796 7.49897V15.8358H5.74796V7.49897H4.24796ZM4.24796 15.8358C4.24796 17.1708 5.33025 18.2531 6.66532 18.2531V16.7531C6.15867 16.7531 5.74796 16.3424 5.74796 15.8358H4.24796ZM6.66532 18.2531H13.3348V16.7531H6.66532V18.2531ZM13.3348 18.2531C14.6698 18.2531 15.7521 17.1708 15.7521 15.8358H14.2521C14.2521 16.3424 13.8414 16.7531 13.3348 16.7531V18.2531ZM15.7521 15.8358V7.49897H14.2521V15.8358H15.7521ZM10.9174 8.33265V14.1684H12.4174V8.33265H10.9174ZM7.58268 8.33265V14.1684H9.08268V8.33265H7.58268ZM3.74744 5.74793H16.2526V4.24793H3.74744V5.74793ZM7.37683 5.2351L7.83035 3.87454L6.40733 3.40019L5.95381 4.76076L7.37683 5.2351ZM7.83041 3.87436C7.95524 3.49958 8.30596 3.24679 8.70099 3.24689L8.70135 1.74689C7.66041 1.74664 6.73621 2.41277 6.40727 3.40036L7.83041 3.87436ZM8.70117 3.24689H11.2989V1.74689H8.70117V3.24689ZM11.2998 3.24689C11.6952 3.2464 12.0464 3.49926 12.1713 3.87436L13.5945 3.40037C13.2653 2.41192 12.3398 1.7456 11.298 1.74689L11.2998 3.24689ZM12.1711 3.87375L12.623 5.23432L14.0465 4.76154L13.5947 3.40098L12.1711 3.87375Z" fill="#323232"/>
</svg>