<svg xmlns="http://www.w3.org/2000/svg" width="33" height="32" viewBox="0 0 33 32" fill="none">
  <rect x="4.16663" y="4" width="24" height="24" rx="5" stroke="white" stroke-opacity="0.87" stroke-width="1.5" stroke-linecap="round" stroke-linejoin="round"/>
  <path fill-rule="evenodd" clip-rule="evenodd" d="M22.8333 11.3343V19.5555C22.8333 20.1294 22.4661 20.6389 21.9216 20.8204L16.5883 22.5982C16.3146 22.6894 16.0187 22.6894 15.745 22.5982L10.4117 20.8204C9.86724 20.6389 9.5 20.1294 9.5 19.5555V11.3343C9.5 10.9057 9.70602 10.5033 10.0537 10.2527C10.4014 10.0021 10.8484 9.93388 11.255 10.0694L15.745 11.5661C16.0187 11.6573 16.3146 11.6573 16.5883 11.5661L21.0784 10.0694C21.485 9.93388 21.9319 10.0021 22.2796 10.2527C22.6273 10.5033 22.8333 10.9057 22.8333 11.3343Z" stroke="white" stroke-opacity="0.87" stroke-width="1.5" stroke-linecap="round" stroke-linejoin="round"/>
  <path d="M16.1667 11.6335V22.6668" stroke="white" stroke-opacity="0.87" stroke-width="1.5" stroke-linecap="round" stroke-linejoin="round"/>
</svg>