<svg xmlns="http://www.w3.org/2000/svg" width="40" height="40" viewBox="0 0 40 40" fill="none">
  <path d="M30.8379 11.5856L26.8948 6.32826C25.8329 4.91238 23.8499 4.5727 22.3773 5.55444L13.2136 11.6636" stroke="#FC5454" stroke-opacity="0.87" stroke-width="2.5" stroke-linecap="round" stroke-linejoin="round"/>
  <path fill-rule="evenodd" clip-rule="evenodd" d="M30.8379 19.166H35.0063C35.9271 19.166 36.6736 19.9125 36.6736 20.8334V25.8355C36.6736 26.7563 35.9271 27.5028 35.0063 27.5028H30.8379C28.5357 27.5028 26.6694 25.6366 26.6694 23.3344V23.3344C26.6694 21.0323 28.5357 19.166 30.8379 19.166V19.166Z" stroke="#FC5454" stroke-opacity="0.87" stroke-width="2.5" stroke-linecap="round" stroke-linejoin="round"/>
  <path d="M20 35.007H30.8378C33.14 35.007 35.0062 33.1408 35.0062 30.8386V27.5039" stroke="#FC5454" stroke-opacity="0.87" stroke-width="2.5" stroke-linecap="round" stroke-linejoin="round"/>
  <circle cx="9.99584" cy="30.0054" r="6.66944" stroke="#FC5454" stroke-opacity="0.87" stroke-width="2.5" stroke-linecap="round" stroke-linejoin="round"/>
  <path d="M35.0063 19.1672V15.8325C35.0063 13.5303 33.14 11.6641 30.8378 11.6641H9.16215C6.86001 11.6641 4.99375 13.5303 4.99375 15.8325V20.0009" stroke="#FC5454" stroke-opacity="0.87" stroke-width="2.5" stroke-linecap="round" stroke-linejoin="round"/>
  <path d="M11.6632 28.3379L8.32848 31.6706" stroke="#FC5454" stroke-opacity="0.87" stroke-width="2.5" stroke-linecap="round" stroke-linejoin="round"/>
  <path d="M8.32946 28.3379L11.6622 31.6726" stroke="#FC5454" stroke-opacity="0.87" stroke-width="2.5" stroke-linecap="round" stroke-linejoin="round"/>
</svg>