<svg xmlns="http://www.w3.org/2000/svg" width="24" height="24" viewBox="0 0 24 24" fill="none">
  <path d="M11.1245 12.005H15.3023" stroke="#323232" stroke-width="1.5" stroke-linecap="round" stroke-linejoin="round"/>
  <path d="M11.1245 15.9967L17.127 16.0017" stroke="#323232" stroke-width="1.5" stroke-linecap="round" stroke-linejoin="round"/>
  <rect x="2.99658" y="2.99625" width="18.0075" height="18.0075" rx="2" stroke="#323232" stroke-width="1.5" stroke-linecap="round" stroke-linejoin="round"/>
  <path d="M11.1245 7.99331H17.127" stroke="#323232" stroke-width="1.5" stroke-linecap="round" stroke-linejoin="round"/>
  <path d="M7.12225 7.74822C6.98426 7.74877 6.87278 7.86099 6.87315 7.99899C6.87352 8.13698 6.98559 8.24861 7.12359 8.24842C7.26158 8.24824 7.37336 8.13632 7.37336 7.99832C7.37363 7.93173 7.34723 7.86781 7.30005 7.82082C7.25287 7.77383 7.18884 7.74768 7.12225 7.74822" stroke="#323232" stroke-width="1.5" stroke-linecap="round" stroke-linejoin="round"/>
  <path d="M7.12225 11.7499C6.98426 11.7504 6.87278 11.8627 6.87315 12.0007C6.87352 12.1387 6.98559 12.2503 7.12359 12.2501C7.26158 12.2499 7.37336 12.138 7.37336 12C7.37363 11.9334 7.34723 11.8695 7.30005 11.8225C7.25287 11.7755 7.18884 11.7494 7.12225 11.7499" stroke="#323232" stroke-width="1.5" stroke-linecap="round" stroke-linejoin="round"/>
  <path d="M7.12225 15.7515C6.98426 15.7521 6.87278 15.8643 6.87315 16.0023C6.87352 16.1403 6.98559 16.2519 7.12359 16.2517C7.26158 16.2516 7.37336 16.1396 7.37336 16.0016C7.37363 15.9351 7.34723 15.8711 7.30005 15.8241C7.25287 15.7772 7.18884 15.751 7.12225 15.7515" stroke="#323232" stroke-width="1.5" stroke-linecap="round" stroke-linejoin="round"/>
</svg>