<svg xmlns="http://www.w3.org/2000/svg" width="40" height="40" viewBox="0 0 40 40" fill="none">
<path d="M30 6.66602C31.8409 6.66602 33.3333 8.1584 33.3333 9.99935V31.666C33.3333 33.507 31.8409 34.9994 30 34.9994H9.99996C8.15901 34.9994 6.66663 33.507 6.66663 31.666V9.99935C6.66663 8.1584 8.15901 6.66602 9.99996 6.66602" stroke="#A1A1A1" stroke-width="2" stroke-linecap="round" stroke-linejoin="round"/>
<path d="M10 6.66732H15.8333" stroke="#A1A1A1" stroke-width="2" stroke-linecap="round" stroke-linejoin="round"/>
<path d="M24.1666 6.66732H30" stroke="#A1A1A1" stroke-width="2" stroke-linecap="round" stroke-linejoin="round"/>
<path fill-rule="evenodd" clip-rule="evenodd" d="M17.5 3.33398H22.5C23.4205 3.33398 24.1667 4.08018 24.1667 5.00065V10.0007H15.8334V5.00065C15.8334 4.08018 16.5796 3.33398 17.5 3.33398Z" stroke="#A1A1A1" stroke-width="2" stroke-linecap="round" stroke-linejoin="round"/>
<ellipse cx="20" cy="18.3333" rx="3.33333" ry="3.33333" stroke="#A1A1A1" stroke-width="2" stroke-linecap="round" stroke-linejoin="round"/>
<path d="M20 15C21.8409 15 23.3333 16.4924 23.3333 18.3333C23.3333 20.1743 21.8409 21.6667 20 21.6667" stroke="#A1A1A1" stroke-width="2" stroke-linecap="round" stroke-linejoin="round"/>
<path d="M25.8333 29.1673C25.8333 27.3264 24.3409 25.834 22.5 25.834H17.5C15.659 25.834 14.1666 27.3264 14.1666 29.1673" stroke="#A1A1A1" stroke-width="2" stroke-linecap="round" stroke-linejoin="round"/>
</svg>