<svg xmlns="http://www.w3.org/2000/svg" width="40" height="40" viewBox="0 0 40 40" fill="none">
<path d="M20 28.4668V35.0007" stroke="#A1A1A1" stroke-width="2" stroke-linecap="round" stroke-linejoin="round"/>
<path d="M5 34.9993V32.5468C5 30.1634 6.6823 28.1114 9.01942 27.6439L13.7627 26.6953C14.1548 26.6169 14.5619 26.6974 14.8946 26.9192V26.9192C17.9862 28.9803 22.0139 28.9803 25.1055 26.9192V26.9192C25.4382 26.6974 25.8453 26.6169 26.2374 26.6953L30.9807 27.6439C33.3178 28.1114 35 30.1635 35 32.5468V34.9993" stroke="#A1A1A1" stroke-width="2" stroke-linecap="round" stroke-linejoin="round"/>
<path d="M26.6667 12.3301V16.6662C26.6667 20.3481 23.6819 23.3328 20 23.3328V23.3328C16.3181 23.3328 13.3334 20.3481 13.3334 16.6662V12.3301" stroke="#A1A1A1" stroke-width="2" stroke-linecap="round" stroke-linejoin="round"/>
<path d="M23.502 22.3418L24.7088 27.1693" stroke="#A1A1A1" stroke-width="2" stroke-linecap="round" stroke-linejoin="round"/>
<path d="M16.502 22.3418L15.2953 27.1691" stroke="#A1A1A1" stroke-width="2" stroke-linecap="round" stroke-linejoin="round"/>
<path fill-rule="evenodd" clip-rule="evenodd" d="M10.1614 10.7609L17.5856 14.4363C19.1072 15.1887 20.8927 15.1887 22.4143 14.4363L29.8385 10.7609C30.4473 10.4633 30.8333 9.84492 30.8333 9.16731C30.8333 8.48971 30.4473 7.8713 29.8385 7.57368L22.4143 3.8983C20.8927 3.14588 19.1072 3.14588 17.5856 3.8983L10.1614 7.57368C9.55264 7.8713 9.16663 8.48971 9.16663 9.16731C9.16663 9.84492 9.55264 10.4633 10.1614 10.7609Z" stroke="#A1A1A1" stroke-width="2" stroke-linecap="round" stroke-linejoin="round"/>
<path d="M30.8333 9.22461V13.5579" stroke="#A1A1A1" stroke-width="2" stroke-linecap="round" stroke-linejoin="round"/>
</svg>