<svg xmlns="http://www.w3.org/2000/svg" width="41" height="40" viewBox="0 0 41 40" fill="none">
<path fill-rule="evenodd" clip-rule="evenodd" d="M15.7787 22.6166L12.7137 18.5416L14.9637 17.7866C15.3721 17.6499 15.8204 17.7133 16.1737 17.9583L18.1271 19.3066L22.8254 17.2383L17.9171 11.0199L21.9137 10.1699L28.3687 15.2249L35.2521 12.4816C36.9371 11.8099 38.7971 12.9333 38.9854 14.7366V14.7366C39.1121 15.9333 38.4404 17.0733 37.3304 17.5433L24.9921 22.7666C24.6754 22.8999 24.3387 22.9733 23.9954 22.9816L16.9054 23.1583C16.4637 23.1733 16.0437 22.9699 15.7787 22.6166Z" stroke="#A1A1A1" stroke-width="2" stroke-linecap="round" stroke-linejoin="round"/>
<path d="M34.0587 12.9995C31.6504 8.26786 26.747 5.01953 21.0754 5.01953C13.0254 5.01953 6.50037 11.5479 6.50037 19.6029C6.50037 27.6562 13.0254 34.1862 21.0754 34.1862C29.1254 34.1862 35.6504 27.6579 35.6504 19.6029C35.6504 19.1679 35.622 18.7412 35.5854 18.3162" stroke="#A1A1A1" stroke-width="2" stroke-linecap="round" stroke-linejoin="round"/>
<path d="M6.5337 20.582C3.42703 22.8604 1.74537 25.3887 2.49537 27.1554C3.5587 29.7887 9.5587 29.847 15.897 27.2854" stroke="#A1A1A1" stroke-width="2" stroke-linecap="round" stroke-linejoin="round"/>
</svg>