<svg xmlns="http://www.w3.org/2000/svg" width="24" height="24" viewBox="0 0 24 24" fill="none">
  <rect x="3" y="3" width="18" height="18" rx="5" stroke="black" stroke-opacity="0.87" stroke-width="1.5" stroke-linecap="round" stroke-linejoin="round"/>
  <path fill-rule="evenodd" clip-rule="evenodd" d="M17 8.50075V14.6666C17 15.0971 16.7246 15.4792 16.3162 15.6153L12.3162 16.9487C12.111 17.0171 11.889 17.0171 11.6838 16.9487L7.68377 15.6153C7.27543 15.4792 7 15.0971 7 14.6666V8.50075C7 8.1793 7.15452 7.87745 7.41529 7.6895C7.67606 7.50155 8.01128 7.45041 8.31623 7.55206L11.6838 8.67458C11.889 8.743 12.111 8.743 12.3162 8.67458L15.6838 7.55206C15.9887 7.45041 16.3239 7.50155 16.5847 7.6895C16.8455 7.87745 17 8.1793 17 8.50075Z" stroke="black" stroke-opacity="0.87" stroke-width="1.5" stroke-linecap="round" stroke-linejoin="round"/>
  <path d="M12 8.7251V17" stroke="black" stroke-opacity="0.87" stroke-width="1.5" stroke-linecap="round" stroke-linejoin="round"/>
</svg>