<svg xmlns="http://www.w3.org/2000/svg" width="24" height="24" viewBox="0 0 24 24" fill="none">
  <rect x="3" y="3" width="18" height="18" rx="5" stroke="white" stroke-opacity="0.87" stroke-width="1.5" stroke-linecap="round" stroke-linejoin="round"/>
  <path fill-rule="evenodd" clip-rule="evenodd" d="M17 8.50099V14.6669C17 15.0973 16.7246 15.4795 16.3162 15.6156L12.3162 16.9489C12.111 17.0173 11.889 17.0173 11.6838 16.9489L7.68377 15.6156C7.27543 15.4795 7 15.0973 7 14.6669V8.50099C7 8.17955 7.15452 7.8777 7.41529 7.68974C7.67606 7.50179 8.01128 7.45065 8.31623 7.5523L11.6838 8.67482C11.889 8.74324 12.111 8.74324 12.3162 8.67482L15.6838 7.5523C15.9887 7.45065 16.3239 7.50179 16.5847 7.68974C16.8455 7.8777 17 8.17955 17 8.50099Z" stroke="white" stroke-opacity="0.87" stroke-width="1.5" stroke-linecap="round" stroke-linejoin="round"/>
  <path d="M12 8.72461V16.9995" stroke="white" stroke-opacity="0.87" stroke-width="1.5" stroke-linecap="round" stroke-linejoin="round"/>
</svg>